{
  "accessors": [
    {
      "bufferView": 2,
      "componentType": 5126,
      "count": 7995,
      "max": [
        0.20000162720680237,
        3.799582004547119,
        4.390293598175049
      ],
      "min": [
        -0.19999903440475464,
        -3.3862996101379395,
        -4.448498249053955
      ],
      "type": "VEC3"
    },
    {
      "bufferView": 2,
      "byteOffset": 95940,
      "componentType": 5126,
      "count": 7995,
      "max": [
        1.0,
        1.0,
        1.0
      ],
      "min": [
        -1.0,
        -1.0,
        -1.0
      ],
      "type": "VEC3"
    },
    {
      "bufferView": 1,
      "componentType": 5126,
      "count": 7995,
      "max": [
        0.9945259690284729,
        0.9933828115463257
      ],
      "min": [
        0.010787606239318848,
        0.007313728332519531
      ],
      "type": "VEC2"
    },
    {
      "bufferView": 0,
      "componentType": 5125,
      "count": 33684,
      "type": "SCALAR"
    }
  ],
  "asset": {
    "extras": {
      "author": "Luis 3D (https://sketchfab.com/luism3D)",
      "license": "CC-BY-NC-4.0 (http://creativecommons.org/licenses/by-nc/4.0/)",
      "source": "https://sketchfab.com/3d-models/paris-2024-olympic-games-logo-marianne-1a33655f475e456db64c6fec169d5a18",
      "title": "Paris 2024 Olympic games logo, Marianne"
    },
    "generator": "Sketchfab-15.40.0",
    "version": "2.0"
  },
  "bufferViews": [
    {
      "buffer": 0,
      "byteLength": 134736,
      "name": "floatBufferViews",
      "target": 34963
    },
    {
      "buffer": 0,
      "byteLength": 63960,
      "byteOffset": 134736,
      "byteStride": 8,
      "name": "floatBufferViews",
      "target": 34962
    },
    {
      "buffer": 0,
      "byteLength": 191880,
      "byteOffset": 198696,
      "byteStride": 12,
      "name": "floatBufferViews",
      "target": 34962
    }
  ],
  "buffers": [
    {
      "byteLength": 390576,
      "uri": "scene.bin"
    }
  ],
  "images": [
    {
      "uri": "textures/JO2024-texture_baseColor.png"
    }
  ],
  "materials": [
    {
      "doubleSided": true,
      "name": "JO2024-texture",
      "pbrMetallicRoughness": {
        "baseColorTexture": {
          "index": 0
        },
        "roughnessFactor": 0.4
      }
    }
  ],
  "meshes": [
    {
      "name": "Object_0",
      "primitives": [
        {
          "attributes": {
            "NORMAL": 1,
            "POSITION": 0,
            "TEXCOORD_0": 2
          },
          "indices": 3,
          "material": 0,
          "mode": 4
        }
      ]
    }
  ],
  "nodes": [
    {
      "children": [
        1
      ],
      "matrix": [
        2.220446049250313e-16,
        -6.123234262925839e-17,
        1.0,
        0.0,
        1.0,
        -1.6081226229577287e-16,
        -2.2204460492503136e-16,
        0.0,
        1.6081226229577292e-16,
        1.0,
        6.123234262925839e-17,
        0.0,
        0.0,
        0.0,
        0.0,
        1.0
      ],
      "name": "Sketchfab_model"
    },
    {
      "children": [
        2
      ],
      "name": "root"
    },
    {
      "children": [
        3
      ],
      "matrix": [
        1.0,
        0.0,
        0.0,
        0.0,
        0.0,
        2.220446049250313e-16,
        1.0,
        0.0,
        0.0,
        -1.0,
        2.220446049250313e-16,
        0.0,
        0.0,
        0.0,
        0.0,
        1.0
      ],
      "name": "GLTF_SceneRootNode"
    },
    {
      "children": [
        4
      ],
      "name": "Paris 2024_0"
    },
    {
      "mesh": 0,
      "name": "Object_4"
    }
  ],
  "samplers": [
    {
      "magFilter": 9729,
      "minFilter": 9987,
      "wrapS": 10497,
      "wrapT": 10497
    }
  ],
  "scene": 0,
  "scenes": [
    {
      "name": "Sketchfab_Scene",
      "nodes": [
        0
      ]
    }
  ],
  "textures": [
    {
      "sampler": 0,
      "source": 0
    }
  ]
}
